<?xml version="1.0" encoding="UTF-8" standalone="no"?>
<!-- Created with Inkscape (http://www.inkscape.org/) -->

<svg
   width="276.74677"
   height="49.05109"
   viewBox="0 0 73.22258 12.978101"
   version="1.1"
   id="svg5"
   sodipodi:docname="windus.svg"
   xml:space="preserve"
   inkscape:export-filename="windus.svg"
   inkscape:export-xdpi="96"
   inkscape:export-ydpi="96"
   inkscape:version="1.2.2 (732a01da63, 2022-12-09, custom)"
   xmlns:inkscape="http://www.inkscape.org/namespaces/inkscape"
   xmlns:sodipodi="http://sodipodi.sourceforge.net/DTD/sodipodi-0.dtd"
   xmlns="http://www.w3.org/2000/svg"
   xmlns:svg="http://www.w3.org/2000/svg"><sodipodi:namedview
     id="namedview7"
     pagecolor="#ffffff"
     bordercolor="#000000"
     borderopacity="0.25"
     inkscape:showpageshadow="2"
     inkscape:pageopacity="0.0"
     inkscape:pagecheckerboard="0"
     inkscape:deskcolor="#d1d1d1"
     inkscape:document-units="mm"
     showgrid="false"
     inkscape:zoom="2.1174593"
     inkscape:cx="132.70621"
     inkscape:cy="24.793865"
     inkscape:window-width="1320"
     inkscape:window-height="704"
     inkscape:window-x="0"
     inkscape:window-y="0"
     inkscape:window-maximized="1"
     inkscape:current-layer="svg5" /><defs
     id="defs2" /><text
     xml:space="preserve"
     style="font-style:italic;font-variant:normal;font-weight:600;font-stretch:normal;font-size:16.9333px;font-family:FreeSans;-inkscape-font-specification:'FreeSans, Semi-Bold Italic';font-variant-ligatures:normal;font-variant-caps:normal;font-variant-numeric:normal;font-variant-east-asian:normal;display:inline;fill:#ffffff;stroke-width:5.29167"
     x="14.328666"
     y="12.466506"
     id="text1237"><tspan
       sodipodi:role="line"
       id="tspan1235"
       style="font-style:italic;font-variant:normal;font-weight:600;font-stretch:normal;font-size:16.9333px;font-family:FreeSans;-inkscape-font-specification:'FreeSans, Semi-Bold Italic';font-variant-ligatures:normal;font-variant-caps:normal;font-variant-numeric:normal;font-variant-east-asian:normal;fill:#3b82f6;fill-opacity:1;stroke-width:5.29167"
       x="14.328666"
       y="12.466506">windus</tspan></text><g
     style="fill:none;stroke:#3b82f6;stroke-width:1.5;stroke-opacity:1"
     id="g318"
     transform="matrix(0.59270861,0,0,0.59270861,0.83910842,-0.35903315)"><path
       stroke-linecap="round"
       stroke-linejoin="round"
       d="m 14.25,6.087 c 0,-0.355 0.186,-0.676 0.401,-0.959 C 14.872,4.838 15,4.494 15,4.125 15,3.089 13.993,2.25 12.75,2.25 c -1.243,0 -2.25,0.84 -2.25,1.875 0,0.369 0.128,0.713 0.349,1.003 0.215,0.283 0.401,0.604 0.401,0.959 v 0 A 0.64,0.64 0 0 1 10.593,6.73 48.39,48.39 0 0 1 6.43,6.43 c 0.186,1.613 0.293,3.25 0.315,4.907 A 0.656,0.656 0 0 1 6.087,12 v 0 C 5.732,12 5.411,11.814 5.128,11.599 A 1.647,1.647 0 0 0 4.125,11.25 c -1.036,0 -1.875,1.007 -1.875,2.25 0,1.243 0.84,2.25 1.875,2.25 0.369,0 0.713,-0.128 1.003,-0.349 C 5.411,15.186 5.732,15 6.087,15 v 0 c 0.31,0 0.555,0.26 0.532,0.57 a 48.039,48.039 0 0 1 -0.642,5.056 c 1.518,0.19 3.058,0.309 4.616,0.354 a 0.64,0.64 0 0 0 0.657,-0.643 v 0 c 0,-0.355 -0.186,-0.676 -0.401,-0.959 A 1.647,1.647 0 0 1 10.5,18.375 c 0,-1.035 1.008,-1.875 2.25,-1.875 1.243,0 2.25,0.84 2.25,1.875 0,0.369 -0.128,0.713 -0.349,1.003 -0.215,0.283 -0.4,0.604 -0.4,0.959 v 0 c 0,0.333 0.277,0.599 0.61,0.58 A 48.1,48.1 0 0 0 20.288,20.287 48.05,48.05 0 0 0 20.87,15.57 0.532,0.532 0 0 0 20.337,15 v 0 c -0.355,0 -0.676,0.186 -0.959,0.401 -0.29,0.221 -0.634,0.349 -1.003,0.349 -1.035,0 -1.875,-1.007 -1.875,-2.25 0,-1.243 0.84,-2.25 1.875,-2.25 0.37,0 0.713,0.128 1.003,0.349 0.283,0.215 0.604,0.401 0.96,0.401 v 0 a 0.656,0.656 0 0 0 0.658,-0.663 48.422,48.422 0 0 0 -0.37,-5.36 C 18.74,6.319 16.816,6.551 14.86,6.666 a 0.578,0.578 0 0 1 -0.61,-0.58 v 0 z"
       id="path309"
       style="stroke:#3b82f6;stroke-opacity:1" /></g></svg>
